# xmcd
#
# Track frame offsets:
#	150
#	13029
#	24089
#	37015
#	51260
#	62890
#	73170
#	84280
#	96388
#	107615
#	119721
#	131981
#	145143
#	157970
#	168808
#	179490
#	191043
#	205050
#	215837
#	228084
#	241447
#	254612
#	268608
#	279469
#
# Disc length: 3862 seconds
# Revision: 0
# Processed by: cddbd v1.5.2PL0 Copyright (c) Steve Scherf et al.
# Submitted via: dBpowerAMP V12.0
#
DISCID=670f1418
DTITLE=Tennessee Ernie Ford - 
DYEAR=1900
DGENRE=
TTITLE0=Jambalaya (On The Bayou)
TTITLE1=Blackberry Boogie
TTITLE2=That Heart Belongs To Me
TTITLE3=Midnight
TTITLE4=Are You Teasing Me
TTITLE5=Give Me More, More, More Of Your Kisses)
TTITLE6=A Full Time Job
TTITLE7=The Wild Side Of Life
TTITLE8=It Wasn't God Who Made Honky Tonk Angels
TTITLE9=Half As Much
TTITLE10=Back Street Affair
TTITLE11=Almost
TTITLE12=Too Old To Cut The Mustard
TTITLE13=I'm An Old, Old Man
TTITLE14=(When You Feel Like You're In Love) Don't Just Stand There
TTITLE15=Easy On The Eyes
TTITLE16=Indian Love Call
TTITLE17=Waiting In The Lobby Of Your Heart
TTITLE18=Don't Let The Stars Get In Your Eyes
TTITLE19=Wondering
TTITLE20=Don't Stay Away (Till Love Grows Cold)
TTITLE21=Missing In Action
TTITLE22=I'll Never Get Out Of This World Alive
TTITLE23=The Gold Rush Is Over
EXTD=
EXTT0=
EXTT1=
EXTT2=
EXTT3=
EXTT4=
EXTT5=
EXTT6=
EXTT7=
EXTT8=
EXTT9=
EXTT10=
EXTT11=
EXTT12=
EXTT13=
EXTT14=
EXTT15=
EXTT16=
EXTT17=
EXTT18=
EXTT19=
EXTT20=
EXTT21=
EXTT22=
EXTT23=
PLAYORDER=
